<svg xmlns="http://www.w3.org/2000/svg" xmlns:xlink="http://www.w3.org/1999/xlink" width="865" zoomAndPan="magnify" viewBox="0 0 648.75 449.999984" height="600" preserveAspectRatio="xMidYMid meet" version="1.0"><defs><clipPath id="c9aeca2c3f"><path d="M 121.410156 0.0859375 L 543 0.0859375 L 543 445.414062 L 121.410156 445.414062 Z M 121.410156 0.0859375 " clip-rule="nonzero"/></clipPath></defs><g clip-path="url(#c9aeca2c3f)"><path fill="#ffffff" d="M 399.757812 434.332031 C 399.757812 440.375 394.859375 445.273438 388.808594 445.273438 L 180.507812 445.273438 C 147.976562 445.273438 121.40625 418.703125 121.40625 386.167969 L 121.40625 11.308594 C 121.40625 5.265625 126.304688 0.367188 132.347656 0.367188 L 340.652344 0.367188 C 373.179688 0.367188 399.757812 26.9375 399.757812 59.46875 L 399.757812 192.492188 L 480 38.867188 C 482.789062 33.53125 489.371094 31.464844 494.707031 34.25 L 536.632812 56.148438 C 541.960938 58.929688 544.035156 65.519531 541.246094 70.855469 L 411.304688 319.640625 C 410.746094 320.871094 409.949219 322.019531 408.917969 323.011719 L 399.757812 331.835938 Z M 495.078125 112.152344 L 472.476562 100.351562 C 438.289062 165.808594 404.109375 231.246094 369.921875 296.695312 L 363.582031 336.367188 C 373.238281 327.066406 382.875 317.78125 392.53125 308.484375 Z M 482.574219 81.023438 L 505.171875 92.828125 L 516.875 70.421875 L 494.28125 58.617188 Z M 377.867188 234.402344 L 377.867188 59.46875 C 377.867188 39.023438 361.09375 22.253906 340.652344 22.253906 L 143.292969 22.253906 L 143.292969 386.167969 C 143.292969 406.609375 160.066406 423.386719 180.507812 423.386719 L 377.867188 423.386719 L 377.867188 352.917969 L 355.226562 374.730469 C 347.753906 381.875 335.238281 375.523438 336.882812 365.148438 L 348.652344 291.539062 C 348.835938 290.40625 349.203125 289.277344 349.765625 288.203125 Z M 183.5625 161.746094 C 169.152344 161.746094 169.152344 139.851562 183.5625 139.851562 L 337.59375 139.851562 C 352.003906 139.851562 352.003906 161.746094 337.59375 161.746094 Z M 183.5625 89.722656 C 169.152344 89.722656 169.152344 67.832031 183.5625 67.832031 L 337.59375 67.832031 C 352.003906 67.832031 352.003906 89.722656 337.59375 89.722656 Z M 183.5625 377.804688 C 169.152344 377.804688 169.152344 355.917969 183.5625 355.917969 L 311.324219 355.917969 C 325.734375 355.917969 325.734375 377.804688 311.324219 377.804688 Z M 183.5625 305.785156 C 169.152344 305.785156 169.152344 283.894531 183.5625 283.894531 L 293.128906 283.894531 C 307.539062 283.894531 307.539062 305.785156 293.128906 305.785156 Z M 183.5625 233.765625 C 169.152344 233.765625 169.152344 211.871094 183.5625 211.871094 L 337.59375 211.871094 C 352.003906 211.871094 352.003906 233.765625 337.59375 233.765625 Z M 183.5625 233.765625 " fill-opacity="1" fill-rule="nonzero"/></g></svg>